<svg width="1440" height="27" viewBox="0 0 1440 27" fill="none" xmlns="http://www.w3.org/2000/svg">
<path d="M267.5 11.5H164V27.1H267.5V11.5Z" fill="#15CA96" stroke="#159A96" stroke-miterlimit="10"/>
<path d="M200.9 1H177.3V11.5H200.9V1Z" fill="#15CA96" stroke="#159A96" stroke-miterlimit="10"/>
<path d="M254.1 1H230.5V11.5H254.1V1Z" fill="#15CA96" stroke="#159A96" stroke-miterlimit="10"/>
<path d="M184.9 12.1001H164V27.2001H184.9V12.1001Z" fill="#159A96"/>
<path d="M184.9 1H177.3V12.1H184.9V1Z" fill="#159A96"/>
<path d="M238.6 1H231V12.1H238.6V1Z" fill="#159A96"/>
<path d="M1088.5 11.5H1036.7H985V27.2H1036.7H1088.5H1140.2V11.5H1088.5Z" fill="#00C1DE" stroke="#1E81BE" stroke-miterlimit="10"/>
<path d="M1021.9 1H998.3V11.5H1021.9V1Z" fill="#00C1DE" stroke="#1E81BE" stroke-miterlimit="10"/>
<path d="M1073.4 1H1049.8V11.5H1073.4V1Z" fill="#00C1DE" stroke="#1E81BE" stroke-miterlimit="10"/>
<path d="M1124.9 1H1101.3V11.5H1124.9V1Z" fill="#00C1DE" stroke="#1E81BE" stroke-miterlimit="10"/>
<path d="M1006 12.1001H985.1V27.2001H1006V12.1001Z" fill="#1E81BE"/>
<path d="M1006 1H998.4V12.1H1006V1Z" fill="#1E81BE"/>
<path d="M1057.4 1H1049.8V12.1H1057.4V1Z" fill="#1E81BE"/>
<path d="M1108.8 1H1101.2V12.1H1108.8V1Z" fill="#1E81BE"/>
<path d="M812.1 1.19995H788.5V11.7H812.1V1.19995Z" fill="#2592D0" stroke="#2C72B5" stroke-miterlimit="10"/>
<path d="M865.3 1.19995H841.7V11.7H865.3V1.19995Z" fill="#2592D0" stroke="#2C72B5" stroke-miterlimit="10"/>
<path d="M880.5 11.7H777V27.4H880.5H983.9V11.7H880.5Z" fill="#2592D0" stroke="#2C72B5" stroke-miterlimit="10"/>
<path d="M918.5 1.19995H894.9V11.7H918.5V1.19995Z" fill="#2592D0" stroke="#2C72B5" stroke-miterlimit="10"/>
<path d="M971.7 1.19995H948.1V11.7H971.7V1.19995Z" fill="#2592D0" stroke="#2C72B5" stroke-miterlimit="10"/>
<path d="M797.9 12.1001H777V27.2001H797.9V12.1001Z" fill="#2C72B5"/>
<path d="M797.9 1H788.5V12.1H797.9V1Z" fill="#2C72B5"/>
<path d="M851.1 1H841.7V12.1H851.1V1Z" fill="#2C72B5"/>
<path d="M904.3 1H894.9V12.1H904.3V1Z" fill="#2C72B5"/>
<path d="M957.5 1H948.1V12.1H957.5V1Z" fill="#2C72B5"/>
<path d="M303.1 1.19995H279.5V11.7H303.1V1.19995Z" fill="#2592D0" stroke="#2C72B5" stroke-miterlimit="10"/>
<path d="M356.3 1.19995H332.7V11.7H356.3V1.19995Z" fill="#2592D0" stroke="#2C72B5" stroke-miterlimit="10"/>
<path d="M371.5 11.7H268V27.4H371.5H474.9V11.7H371.5Z" fill="#2592D0" stroke="#2C72B5" stroke-miterlimit="10"/>
<path d="M409.5 1.19995H385.9V11.7H409.5V1.19995Z" fill="#2592D0" stroke="#2C72B5" stroke-miterlimit="10"/>
<path d="M462.7 1.19995H439.1V11.7H462.7V1.19995Z" fill="#2592D0" stroke="#2C72B5" stroke-miterlimit="10"/>
<path d="M288.9 12.1001H268V27.2001H288.9V12.1001Z" fill="#2C72B5"/>
<path d="M288.9 1H279.5V12.1H288.9V1Z" fill="#2C72B5"/>
<path d="M342.1 1H332.7V12.1H342.1V1Z" fill="#2C72B5"/>
<path d="M395.3 1H385.9V12.1H395.3V1Z" fill="#2C72B5"/>
<path d="M448.5 1H439.1V12.1H448.5V1Z" fill="#2C72B5"/>
<path d="M1376.42 1.1001H1353.62V11.6001H1376.42V1.1001Z" fill="#F4D717" stroke="#E8B301" stroke-miterlimit="10"/>
<path d="M1427.04 1.1001H1404.24V11.6001H1427.04V1.1001Z" fill="#F4D717" stroke="#E8B301" stroke-miterlimit="10"/>
<path d="M1173.91 1H1151.11V11.5H1173.91V1Z" fill="#F4D717" stroke="#E8B301" stroke-miterlimit="10"/>
<path d="M1224.54 1H1201.74V11.5H1224.54V1Z" fill="#F4D717" stroke="#E8B301" stroke-miterlimit="10"/>
<path d="M1275.17 1H1252.36V11.5H1275.17V1Z" fill="#F4D717" stroke="#E8B301" stroke-miterlimit="10"/>
<path d="M1325.79 1H1302.99V11.5H1325.79V1Z" fill="#F4D717" stroke="#E8B301" stroke-miterlimit="10"/>
<path d="M1439.89 11.5H1140V27.1H1439.89V11.5Z" fill="#F4D717" stroke="#E8B301" stroke-miterlimit="10"/>
<path d="M1160.19 12.1001H1140V27.2001H1160.19V12.1001Z" fill="#E8B301"/>
<path d="M1160.19 1H1151.11V12.1H1160.19V1Z" fill="#E8B301"/>
<path d="M1210.82 1H1201.74V12.1H1210.82V1Z" fill="#E8B301"/>
<path d="M1261.45 1H1252.36V12.1H1261.45V1Z" fill="#E8B301"/>
<path d="M1312.07 1H1302.99V12.1H1312.07V1Z" fill="#E8B301"/>
<path d="M1362.7 1H1353.62V12.1H1362.7V1Z" fill="#E8B301"/>
<path d="M1413.33 1H1404.24V12.1H1413.33V1Z" fill="#E8B301"/>
<path d="M99.4179 1.1001H76.6167V11.6001H99.4179V1.1001Z" fill="#F4D717" stroke="#E8B301" stroke-miterlimit="10"/>
<path d="M150.044 1.1001H127.243V11.6001H150.044V1.1001Z" fill="#F4D717" stroke="#E8B301" stroke-miterlimit="10"/>
<path d="M48.7914 1H25.9902V11.5H48.7914V1Z" fill="#F4D717" stroke="#E8B301" stroke-miterlimit="10"/>
<path d="M162.894 11.5H-137V27.1H162.894V11.5Z" fill="#F4D717" stroke="#E8B301" stroke-miterlimit="10"/>
<path d="M35.0721 1H25.9902V12.1H35.0721V1Z" fill="#E8B301"/>
<path d="M85.6985 1H76.6167V12.1H85.6985V1Z" fill="#E8B301"/>
<path d="M136.325 1H127.243V12.1H136.325V1Z" fill="#E8B301"/>
<path d="M712.418 1.1001H689.617V11.6001H712.418V1.1001Z" fill="#15CA96" stroke="#159A96" stroke-miterlimit="10"/>
<path d="M763.044 1.1001H740.243V11.6001H763.044V1.1001Z" fill="#15CA96" stroke="#159A96" stroke-miterlimit="10"/>
<path d="M509.912 1H487.111V11.5H509.912V1Z" fill="#15CA96" stroke="#159A96" stroke-miterlimit="10"/>
<path d="M560.539 1H537.737V11.5H560.539V1Z" fill="#15CA96" stroke="#159A96" stroke-miterlimit="10"/>
<path d="M611.165 1H588.364V11.5H611.165V1Z" fill="#15CA96" stroke="#159A96" stroke-miterlimit="10"/>
<path d="M661.791 1H638.99V11.5H661.791V1Z" fill="#15CA96" stroke="#159A96" stroke-miterlimit="10"/>
<path d="M775.894 11.5H476V27.1H775.894V11.5Z" fill="#15CA96" stroke="#159A96" stroke-miterlimit="10"/>
<path d="M496.193 12.1001H476V27.2001H496.193V12.1001Z" fill="#159A96"/>
<path d="M496.193 1H487.111V12.1H496.193V1Z" fill="#159A96"/>
<path d="M546.819 1H537.737V12.1H546.819V1Z" fill="#159A96"/>
<path d="M597.446 1H588.364V12.1H597.446V1Z" fill="#159A96"/>
<path d="M648.072 1H638.99V12.1H648.072V1Z" fill="#159A96"/>
<path d="M698.699 1H689.617V12.1H698.699V1Z" fill="#159A96"/>
<path d="M749.325 1H740.243V12.1H749.325V1Z" fill="#159A96"/>
</svg>
