<svg width="1427" height="130" viewBox="0 0 1427 130" fill="none" xmlns="http://www.w3.org/2000/svg">
<path d="M979.6 70.2H870V128H979.6V70.2Z" fill="#FF005E" stroke="#C0145D" stroke-miterlimit="10"/>
<path d="M909.1 59H884.1V70.2H909.1V59Z" fill="#FF005E" stroke="#C0145D" stroke-miterlimit="10"/>
<path d="M965.5 59H940.5V70.2H965.5V59Z" fill="#FF005E" stroke="#C0145D" stroke-miterlimit="10"/>
<path d="M891.7 70.2H870V128H891.7V70.2Z" fill="#C0145D" stroke="#C0145D" stroke-miterlimit="10"/>
<path d="M891.7 59H884.1V70.2H891.7V59Z" fill="#C0145D" stroke="#C0145D" stroke-miterlimit="10"/>
<path d="M948.1 59H940.5V70.2H948.1V59Z" fill="#C0145D" stroke="#C0145D" stroke-miterlimit="10"/>
<path d="M1236.6 71.2H1127V129H1236.6V71.2Z" fill="#00C1DE" stroke="#1E81BE" stroke-miterlimit="10"/>
<path d="M1166.1 60H1141.1V71.2H1166.1V60Z" fill="#00C1DE" stroke="#1E81BE" stroke-miterlimit="10"/>
<path d="M1222.5 60H1197.5V71.2H1222.5V60Z" fill="#00C1DE" stroke="#1E81BE" stroke-miterlimit="10"/>
<path d="M1148.7 71.2H1127V129H1148.7V71.2Z" fill="#1E81BD" stroke="#1E81BE" stroke-miterlimit="10"/>
<path d="M1148.7 60H1141.1V71.2H1148.7V60Z" fill="#1E81BD" stroke="#1E81BE" stroke-miterlimit="10"/>
<path d="M1205.1 60H1197.5V71.2H1205.1V60Z" fill="#1E81BD" stroke="#1E81BE" stroke-miterlimit="10"/>
<path d="M1236.6 12.2H1127V70H1236.6V12.2Z" fill="#15CA96" stroke="#159A96" stroke-miterlimit="10"/>
<path d="M1166.1 1H1141.1V12.2H1166.1V1Z" fill="#15CA96" stroke="#159A96" stroke-miterlimit="10"/>
<path d="M1222.5 1H1197.5V12.2H1222.5V1Z" fill="#15CA96" stroke="#159A96" stroke-miterlimit="10"/>
<path d="M1148.7 12.2H1127V70H1148.7V12.2Z" fill="#149A9A" stroke="#159A96" stroke-miterlimit="10"/>
<path d="M1148.7 1H1141.1V12.2H1148.7V1Z" fill="#149A9A" stroke="#159A96" stroke-miterlimit="10"/>
<path d="M1205.1 1H1197.5V12.2H1205.1V1Z" fill="#149A9A" stroke="#159A96" stroke-miterlimit="10"/>
<path d="M1369.91 63.1001H1347.11V73.6001H1369.91V63.1001Z" fill="#00C1DE" stroke="#1E81BE" stroke-miterlimit="10"/>
<path d="M1336 73.6V128.1H1492.9V118.6C1457.83 103.6 1422.76 88.6 1387.69 73.5C1370.49 73.6 1353.2 73.6 1336 73.6Z" fill="#00C1DE" stroke="#1E81BE" stroke-miterlimit="10"/>
<path d="M1356.19 74.1001H1336V128.2H1356.19V74.1001Z" fill="#1E81BE"/>
<path d="M1356.19 63H1347.11V74.1H1356.19V63Z" fill="#1E81BE"/>
<path d="M300.6 70.2H191V128H300.6V70.2Z" fill="#F4D717" stroke="#EAB301" stroke-miterlimit="10"/>
<path d="M230.1 59H205.1V70.2H230.1V59Z" fill="#F4D717" stroke="#EAB301" stroke-miterlimit="10"/>
<path d="M286.5 59H261.5V70.2H286.5V59Z" fill="#F4D717" stroke="#EAB301" stroke-miterlimit="10"/>
<path d="M212.7 70.2H191V128H212.7V70.2Z" fill="#EAB301" stroke="#EAB301" stroke-miterlimit="10"/>
<path d="M212.7 59H205.1V70.2H212.7V59Z" fill="#EAB301" stroke="#EAB301" stroke-miterlimit="10"/>
<path d="M269.1 59H261.5V70.2H269.1V59Z" fill="#EAB301" stroke="#EAB301" stroke-miterlimit="10"/>
<path d="M110.6 70.2H1V128H110.6V70.2Z" fill="#2592D0" stroke="#2C72B5" stroke-miterlimit="10"/>
<path d="M40.2 59H15.2V70.2H40.2V59Z" fill="#2592D0" stroke="#2C72B5" stroke-miterlimit="10"/>
<path d="M96.5 59H71.5V70.2H96.5V59Z" fill="#2592D0" stroke="#2C72B5" stroke-miterlimit="10"/>
<path d="M22.7 70.2H1V128H22.7V70.2Z" fill="#2D70B2" stroke="#2C72B5" stroke-miterlimit="10"/>
<path d="M22.8 59H15.2V70.2H22.8V59Z" fill="#2D70B2" stroke="#2C72B5" stroke-miterlimit="10"/>
<path d="M79.1 59H71.5V70.2H79.1V59Z" fill="#2D70B2" stroke="#2C72B5" stroke-miterlimit="10"/>
<path d="M237.418 43.1001H214.617V53.6001H237.418V43.1001Z" fill="#FDAA04" stroke="#E66119" stroke-miterlimit="10"/>
<path d="M288.044 43.1001H265.243V53.6001H288.044V43.1001Z" fill="#FDAA04" stroke="#E66119" stroke-miterlimit="10"/>
<path d="M34.9121 43H12.1108V53.5H34.9121V43Z" fill="#FDAA04" stroke="#E66119" stroke-miterlimit="10"/>
<path d="M85.5385 43H62.7373V53.5H85.5385V43Z" fill="#FDAA04" stroke="#E66119" stroke-miterlimit="10"/>
<path d="M136.165 43H113.364V53.5H136.165V43Z" fill="#FDAA04" stroke="#E66119" stroke-miterlimit="10"/>
<path d="M186.791 43H163.99V53.5H186.791V43Z" fill="#FDAA04" stroke="#E66119" stroke-miterlimit="10"/>
<path d="M300.894 53.5H1V69.1H300.894V53.5Z" fill="#FDAA04" stroke="#E66119" stroke-miterlimit="10"/>
<path d="M21.1926 54.1001H1V69.2001H21.1926V54.1001Z" fill="#E66119"/>
<path d="M21.1927 43H12.1108V54.1H21.1927V43Z" fill="#E66119"/>
<path d="M71.8191 43H62.7373V54.1H71.8191V43Z" fill="#E66119"/>
<path d="M122.446 43H113.364V54.1H122.446V43Z" fill="#E66119"/>
<path d="M173.072 43H163.99V54.1H173.072V43Z" fill="#E66119"/>
<path d="M223.699 43H214.617V54.1H223.699V43Z" fill="#E66119"/>
<path d="M274.325 43H265.243V54.1H274.325V43Z" fill="#E66119"/>
<path d="M508.023 66.8999H463V121.2H508.023V66.8999Z" fill="#00C1DE" stroke="#1E81BE" stroke-miterlimit="10"/>
<path d="M496.912 56.3999H474.111V66.8999H496.912V56.3999Z" fill="#00C1DE" stroke="#1E81BE" stroke-miterlimit="10"/>
<path d="M501.26 121.3H469.763V128.1H501.26V121.3Z" fill="#00C1DE" stroke="#1E81BE" stroke-miterlimit="10"/>
<path d="M480.487 67.1001H463V121H480.487V67.1001Z" fill="#1E81BE"/>
<path d="M480.487 56H474.111V67.1H480.487V56Z" fill="#1E81BE"/>
<path d="M480.487 121.2H469.763V128.1H480.487V121.2Z" fill="#1E81BE"/>
</svg>
