<svg width="129" height="134" viewBox="0 0 129 134" fill="none" xmlns="http://www.w3.org/2000/svg">
<path d="M95.4871 1.00004L1 34.8652L33.719 132.662L128.206 98.7972L95.4871 1.00004Z" fill="#15CA96" stroke="#159A96" stroke-miterlimit="10"/>
<path d="M48.3702 116.679C54.72 116.679 59.8675 111.351 59.8675 104.779C59.8675 98.2065 54.72 92.8787 48.3702 92.8787C42.0205 92.8787 36.873 98.2065 36.873 104.779C36.873 111.351 42.0205 116.679 48.3702 116.679Z" fill="#159A96" stroke="#15CA96" stroke-miterlimit="10"/>
<path d="M30.3996 63.0788C36.7493 63.0788 41.8969 57.751 41.8969 51.1788C41.8969 44.6066 36.7493 39.2788 30.3996 39.2788C24.0499 39.2788 18.9023 44.6066 18.9023 51.1788C18.9023 57.751 24.0499 63.0788 30.3996 63.0788Z" fill="#159A96" stroke="#15CA96" stroke-miterlimit="10"/>
<path d="M79.4801 45.4787C85.8299 45.4787 90.9774 40.1509 90.9774 33.5787C90.9774 27.0065 85.8299 21.6787 79.4801 21.6787C73.1304 21.6787 67.9829 27.0065 67.9829 33.5787C67.9829 40.1509 73.1304 45.4787 79.4801 45.4787Z" fill="#159A96" stroke="#15CA96" stroke-miterlimit="10"/>
<path d="M97.3541 99.0788C103.704 99.0788 108.851 93.751 108.851 87.1788C108.851 80.6066 103.704 75.2788 97.3541 75.2788C91.0044 75.2788 85.8569 80.6066 85.8569 87.1788C85.8569 93.751 91.0044 99.0788 97.3541 99.0788Z" fill="#159A96" stroke="#15CA96" stroke-miterlimit="10"/>
<path d="M49.7228 113.679C56.0726 113.679 61.2201 108.351 61.2201 101.779C61.2201 95.2065 56.0726 89.8787 49.7228 89.8787C43.3731 89.8787 38.2256 95.2065 38.2256 101.779C38.2256 108.351 43.3731 113.679 49.7228 113.679Z" fill="#15CA96" stroke="#159A96" stroke-miterlimit="10"/>
<path d="M32.0422 60.7788C38.3919 60.7788 43.5394 55.451 43.5394 48.8788C43.5394 42.3066 38.3919 36.9788 32.0422 36.9788C25.6924 36.9788 20.5449 42.3066 20.5449 48.8788C20.5449 55.451 25.6924 60.7788 32.0422 60.7788Z" fill="#15CA96" stroke="#159A96" stroke-miterlimit="10"/>
<path d="M80.5432 43.3786C86.8929 43.3786 92.0403 38.0508 92.0403 31.4786C92.0403 24.9064 86.8929 19.5786 80.5432 19.5786C74.1934 19.5786 69.0459 24.9064 69.0459 31.4786C69.0459 38.0508 74.1934 43.3786 80.5432 43.3786Z" fill="#15CA96" stroke="#159A96" stroke-miterlimit="10"/>
<path d="M98.2238 96.2788C104.574 96.2788 109.721 90.951 109.721 84.3788C109.721 77.8066 104.574 72.4788 98.2238 72.4788C91.8741 72.4788 86.7266 77.8066 86.7266 84.3788C86.7266 90.951 91.8741 96.2788 98.2238 96.2788Z" fill="#15CA96" stroke="#159A96" stroke-miterlimit="10"/>
</svg>
