<svg width="133" height="161" viewBox="0 0 133 161" fill="none" xmlns="http://www.w3.org/2000/svg">
<path d="M59.8883 43.3L31.0969 85.6L2.4021 127.9L45.4925 159.3L74.1873 117L102.979 74.6L131.77 32.3L88.6796 1L59.8883 43.3Z" fill="#FDAA04" stroke="#E66119" stroke-miterlimit="10"/>
<path d="M14.5242 91.5686L1.4021 110.869L9.69837 116.911L22.8205 97.6113L14.5242 91.5686Z" fill="#FDAA04" stroke="#E66119" stroke-miterlimit="10"/>
<path d="M43.1326 49.4943L30.0105 68.7944L38.3068 74.8372L51.4289 55.5371L43.1326 49.4943Z" fill="#FDAA04" stroke="#E66119" stroke-miterlimit="10"/>
<path d="M71.7967 7.33807L58.6746 26.6382L66.9708 32.6809L80.093 13.3808L71.7967 7.33807Z" fill="#FDAA04" stroke="#E66119" stroke-miterlimit="10"/>
<path d="M13.9981 110.605L2.3772 127.698L45.4388 159.062L57.0596 141.97L13.9981 110.605Z" fill="#E66119"/>
<path d="M5.22575 104.254L1 110.47L9.77034 116.858L13.9961 110.643L5.22575 104.254Z" fill="#E66119"/>
<path d="M33.8156 62.2239L29.5898 68.4392L38.3602 74.8273L42.586 68.612L33.8156 62.2239Z" fill="#E66119"/>
<path d="M62.4057 20.1934L58.1799 26.4087L66.9503 32.7967L71.176 26.5815L62.4057 20.1934Z" fill="#E66119"/>
</svg>
