<svg width="236" height="187" viewBox="0 0 236 187" fill="none" xmlns="http://www.w3.org/2000/svg">
<path d="M70.4488 11.1258L64.041 19.4146L81.8801 33.7045L88.2878 25.4158L70.4488 11.1258Z" fill="#00C1DE" stroke="#1E81BE" stroke-miterlimit="10"/>
<path d="M110.6 43.3868L104.192 51.6755L122.031 65.9655L128.439 57.6768L110.6 43.3868Z" fill="#00C1DE" stroke="#1E81BE" stroke-miterlimit="10"/>
<path d="M133.585 75.1433L55.3591 12.5743L22.0754 55.553L100.262 118.214L178.448 180.875L211.771 137.804L133.585 75.1433Z" fill="#00C1DE" stroke="#1E81BE" stroke-miterlimit="10"/>
<path d="M150.887 75.6295L144.479 83.9182L162.318 98.2082L168.726 89.9195L150.887 75.6295Z" fill="#00C1DE" stroke="#1E81BE" stroke-miterlimit="10"/>
<path d="M191.099 107.811L184.691 116.1L202.53 130.39L208.938 122.101L191.099 107.811Z" fill="#00C1DE" stroke="#1E81BE" stroke-miterlimit="10"/>
<path d="M55.2831 12.5058L22.0237 55.5283L37.8218 68.1834L71.0813 25.161L55.2831 12.5058Z" fill="#1E81BE"/>
<path d="M70.811 10.7081L64.0371 19.4705L71.1425 25.1622L77.9164 16.3999L70.811 10.7081Z" fill="#1E81BE"/>
<path d="M111.023 42.89L104.249 51.6523L111.354 57.3441L118.128 48.5818L111.023 42.89Z" fill="#1E81BE"/>
<path d="M151.235 75.0721L144.461 83.8345L151.566 89.5263L158.34 80.7638L151.235 75.0721Z" fill="#1E81BE"/>
<path d="M191.461 107.394L184.688 116.156L191.793 121.848L198.567 113.085L191.461 107.394Z" fill="#1E81BE"/>
</svg>
