<svg width="324" height="238" viewBox="0 0 324 238" fill="none" xmlns="http://www.w3.org/2000/svg">
<path d="M265.911 101.579L245.315 91.7952L240.81 101.279L261.405 111.063L265.911 101.579Z" fill="#FF005E" stroke="#C0145D" stroke-miterlimit="10"/>
<path d="M311.64 123.303L291.044 113.519L286.539 123.003L307.134 132.787L311.64 123.303Z" fill="#FF005E" stroke="#C0145D" stroke-miterlimit="10"/>
<path d="M83.0392 14.5931L62.4438 4.80908L57.9383 14.2933L78.5336 24.0773L83.0392 14.5931Z" fill="#FF005E" stroke="#C0145D" stroke-miterlimit="10"/>
<path d="M128.768 36.317L108.172 26.533L103.667 36.0171L124.262 45.8012L128.768 36.317Z" fill="#FF005E" stroke="#C0145D" stroke-miterlimit="10"/>
<path d="M174.496 58.0409L153.901 48.2568L149.396 57.741L169.991 67.5251L174.496 58.0409Z" fill="#FF005E" stroke="#C0145D" stroke-miterlimit="10"/>
<path d="M220.225 79.765L199.63 69.981L195.124 79.4651L215.719 89.2492L220.225 79.765Z" fill="#FF005E" stroke="#C0145D" stroke-miterlimit="10"/>
<path d="M318.741 138.301L228.505 95.4338L228.548 95.3434L138.225 52.4345L47.9023 9.52563L24.5163 58.7531L1.13022 107.981L47.2952 129.912C76.672 92.1657 127.996 78.0203 171.543 98.7078C215.09 119.395 236.548 168.116 225.846 214.735L272.011 236.666L318.741 138.301Z" fill="#FF005E" stroke="#C0145D" stroke-miterlimit="10"/>
<path d="M65.7967 18.6908L47.5576 10.0261L1.00005 108.029L19.2391 116.694L65.7967 18.6908Z" fill="#C0145D"/>
<path d="M70.5597 8.66461L62.3564 4.76758L57.5934 14.7938L65.7966 18.6908L70.5597 8.66461Z" fill="#C0145D"/>
<path d="M116.288 30.3885L108.085 26.4915L103.322 36.5176L111.525 40.4147L116.288 30.3885Z" fill="#C0145D"/>
<path d="M162.017 52.1126L153.814 48.2156L149.051 58.2418L157.254 62.1388L162.017 52.1126Z" fill="#C0145D"/>
<path d="M207.746 73.8365L199.542 69.9395L194.779 79.9656L202.983 83.8627L207.746 73.8365Z" fill="#C0145D"/>
<path d="M253.474 95.5604L245.271 91.6633L240.508 101.69L248.711 105.587L253.474 95.5604Z" fill="#C0145D"/>
<path d="M299.203 117.284L291 113.387L286.237 123.413L294.44 127.31L299.203 117.284Z" fill="#C0145D"/>
</svg>
