<svg width="189" height="321" viewBox="0 0 189 321" fill="none" xmlns="http://www.w3.org/2000/svg">
<path d="M18.0044 731.4H6.50712C3.51204 731.4 1.09668 728.9 1.09668 725.8L1.09668 6.6C1.09668 3.5 3.51204 1 6.50712 1L18.0044 1C20.9994 1 23.4148 3.5 23.4148 6.6L23.4148 725.8C23.4148 728.9 20.9994 731.4 18.0044 731.4Z" fill="#F4D717" stroke="#E8B301" stroke-miterlimit="10"/>
<path d="M182.734 731.4H171.236C168.241 731.4 165.826 728.9 165.826 725.8L165.826 6.6C165.826 3.5 168.241 1 171.236 1L182.734 1C185.729 1 188.144 3.5 188.144 6.6L188.144 725.8C188.241 728.9 185.729 731.4 182.734 731.4Z" fill="#F4D717" stroke="#E8B301" stroke-miterlimit="10"/>
<path d="M165.826 47.3L23.4148 47.3V68.1001H165.826V47.3Z" fill="#F4D717" stroke="#E8B301" stroke-miterlimit="10"/>
<path d="M165.826 101.1H23.4148V121.9H165.826V101.1Z" fill="#F4D717" stroke="#E8B301" stroke-miterlimit="10"/>
<path d="M165.826 155H23.4148V175.8H165.826V155Z" fill="#F4D717" stroke="#E8B301" stroke-miterlimit="10"/>
<path d="M165.826 208.8H23.4148V229.6H165.826V208.8Z" fill="#F4D717" stroke="#E8B301" stroke-miterlimit="10"/>
<path d="M165.826 262.6H23.4148V283.4H165.826V262.6Z" fill="#F4D717" stroke="#E8B301" stroke-miterlimit="10"/>
<path d="M165.826 316.5H23.4148V337.3H165.826V316.5Z" fill="#F4D717" stroke="#E8B301" stroke-miterlimit="10"/>
<path d="M12.2075 731.4H6.41056C3.41548 731.4 1 728.9 1 725.8L1 6.6C1 3.5 3.41548 1 6.41056 1H12.2075L12.2075 731.4Z" fill="#E8B301"/>
<path d="M177.033 731.4H171.236C168.241 731.4 165.826 728.9 165.826 725.8L165.826 6.6C165.826 3.5 168.241 1 171.236 1H177.033L177.033 731.4Z" fill="#E8B301"/>
<path d="M165.826 273H23.4148V283.4H165.826V273Z" fill="#E8B301"/>
<path d="M165.826 219.2H23.4148V229.6H165.826V219.2Z" fill="#E8B301"/>
<path d="M165.826 165.4H23.4148V175.8H165.826V165.4Z" fill="#E8B301"/>
<path d="M165.826 111.6H23.4148V122H165.826V111.6Z" fill="#E8B301"/>
<path d="M165.826 57.7L23.4148 57.7V68.1H165.826V57.7Z" fill="#E8B301"/>
</svg>
