<svg width="1241" height="74" viewBox="0 0 1241 74" fill="none" xmlns="http://www.w3.org/2000/svg">
<path d="M623.7 55.5001L675.4 55.5001L727.2 55.5001L727.2 1.00012L675.4 1.00012L623.7 1.00011L572 1.00011L572 55.5001L623.7 55.5001Z" fill="#FDAA04" stroke="#E66119" stroke-miterlimit="10"/>
<path d="M690.2 66.0001L713.8 66.0001L713.8 55.5001L690.2 55.5001L690.2 66.0001Z" fill="#FDAA04" stroke="#E66119" stroke-miterlimit="10"/>
<path d="M638.8 66.0001L662.4 66.0001L662.4 55.5001L638.8 55.5001L638.8 66.0001Z" fill="#FDAA04" stroke="#E66119" stroke-miterlimit="10"/>
<path d="M587.3 66.0001L610.9 66.0001L610.9 55.5001L587.3 55.5001L587.3 66.0001Z" fill="#FDAA04" stroke="#E66119" stroke-miterlimit="10"/>
<path d="M706.2 55.5001L727.1 55.5001L727.1 1.00012L706.2 1.00012L706.2 55.5001Z" fill="#E66119"/>
<path d="M706.1 66.6001L713.7 66.6001L713.7 55.5001L706.1 55.5001L706.1 66.6001Z" fill="#E66119"/>
<path d="M654.8 66.6001L662.4 66.6001L662.4 55.5001L654.8 55.5001L654.8 66.6001Z" fill="#E66119"/>
<path d="M603.4 66.6001L611 66.6001L611 55.5001L603.4 55.5001L603.4 66.6001Z" fill="#E66119"/>
<path d="M898.8 27.2002L922.4 27.2002L922.4 16.7002L898.8 16.7002L898.8 27.2002Z" fill="#2592D0" stroke="#2C72B5" stroke-miterlimit="10"/>
<path d="M845.6 27.2002L869.2 27.2002L869.2 16.7002L845.6 16.7002L845.6 27.2002Z" fill="#2592D0" stroke="#2C72B5" stroke-miterlimit="10"/>
<path d="M830.4 16.7002L933.9 16.7002L933.9 1.00019L830.4 1.00019L727 1.00018L727 16.7002L830.4 16.7002Z" fill="#2592D0" stroke="#2C72B5" stroke-miterlimit="10"/>
<path d="M792.4 27.2002L816 27.2002L816 16.7002L792.4 16.7002L792.4 27.2002Z" fill="#2592D0" stroke="#2C72B5" stroke-miterlimit="10"/>
<path d="M739.2 27.2001L762.8 27.2001L762.8 16.7001L739.2 16.7001L739.2 27.2001Z" fill="#2592D0" stroke="#2C72B5" stroke-miterlimit="10"/>
<path d="M913 16.3002L933.9 16.3002L933.9 1.20017L913 1.20017L913 16.3002Z" fill="#2C72B5"/>
<path d="M913 27.4001L922.4 27.4001L922.4 16.3001L913 16.3001L913 27.4001Z" fill="#2C72B5"/>
<path d="M859.8 27.4001L869.2 27.4001L869.2 16.3001L859.8 16.3001L859.8 27.4001Z" fill="#2C72B5"/>
<path d="M806.6 27.4001L816 27.4001L816 16.3001L806.6 16.3001L806.6 27.4001Z" fill="#2C72B5"/>
<path d="M753.4 27.4001L762.8 27.4001L762.8 16.3001L753.4 16.3001L753.4 27.4001Z" fill="#2C72B5"/>
<path d="M219 58.8002L328.6 58.8002L328.6 1.00017L219 1.00016L219 58.8002Z" fill="#15CA96" stroke="#159A96" stroke-miterlimit="10"/>
<path d="M289.5 70.0001L314.5 70.0001L314.5 58.8001L289.5 58.8001L289.5 70.0001Z" fill="#15CA96" stroke="#159A96" stroke-miterlimit="10"/>
<path d="M233.1 70.0001L258.1 70.0001L258.1 58.8001L233.1 58.8001L233.1 70.0001Z" fill="#15CA96" stroke="#159A96" stroke-miterlimit="10"/>
<path d="M306.9 58.8002L328.6 58.8002L328.6 1.00017L306.9 1.00017L306.9 58.8002Z" fill="#149A9A" stroke="#159A96" stroke-miterlimit="10"/>
<path d="M306.9 70.0001L314.5 70.0001L314.5 58.8001L306.9 58.8001L306.9 70.0001Z" fill="#149A9A" stroke="#159A96" stroke-miterlimit="10"/>
<path d="M250.5 70.0001L258.1 70.0001L258.1 58.8001L250.5 58.8001L250.5 70.0001Z" fill="#149A9A" stroke="#159A96" stroke-miterlimit="10"/>
<path d="M172.8 28.2001L196.4 28.2001L196.4 17.7001L172.8 17.7001L172.8 28.2001Z" fill="#2592D0" stroke="#2C72B5" stroke-miterlimit="10"/>
<path d="M119.6 28.2001L143.2 28.2001L143.2 17.7001L119.6 17.7001L119.6 28.2001Z" fill="#2592D0" stroke="#2C72B5" stroke-miterlimit="10"/>
<path d="M104.4 17.7001L207.9 17.7001L207.9 2.00007L104.4 2.00006L0.99991 2.00005L0.999908 17.7001L104.4 17.7001Z" fill="#2592D0" stroke="#2C72B5" stroke-miterlimit="10"/>
<path d="M66.4 28.2001L90 28.2001L90 17.7001L66.4 17.7001L66.4 28.2001Z" fill="#2592D0" stroke="#2C72B5" stroke-miterlimit="10"/>
<path d="M13.1998 28.1999L36.7998 28.2L36.7998 17.7L13.1998 17.6999L13.1998 28.1999Z" fill="#2592D0" stroke="#2C72B5" stroke-miterlimit="10"/>
<path d="M187 17.3L207.9 17.3L207.9 2.20005L187 2.20005L187 17.3Z" fill="#2C72B5"/>
<path d="M187 28.4L196.4 28.4L196.4 17.3L187 17.3L187 28.4Z" fill="#2C72B5"/>
<path d="M133.8 28.4L143.2 28.4L143.2 17.3L133.8 17.3L133.8 28.4Z" fill="#2C72B5"/>
<path d="M80.6 28.4L90 28.4L90 17.3L80.6 17.3L80.6 28.4Z" fill="#2C72B5"/>
<path d="M27.3998 28.4L36.7998 28.4L36.7998 17.3L27.3998 17.3L27.3998 28.4Z" fill="#2C72B5"/>
<path d="M1035.02 11.9001H990V66.2002H1035.02V11.9001Z" fill="#00C1DE" stroke="#1E81BE" stroke-miterlimit="10"/>
<path d="M1023.91 1.40015H1001.11V11.9001H1023.91V1.40015Z" fill="#00C1DE" stroke="#1E81BE" stroke-miterlimit="10"/>
<path d="M1028.26 66.3H996.763V73.1H1028.26V66.3Z" fill="#00C1DE" stroke="#1E81BE" stroke-miterlimit="10"/>
<path d="M1007.49 12.1001H990V66.0001H1007.49V12.1001Z" fill="#1E81BE"/>
<path d="M1007.49 1.00012H1001.11V12.1001H1007.49V1.00012Z" fill="#1E81BE"/>
<path d="M1007.49 66.2002H996.763V73.1002H1007.49V66.2002Z" fill="#1E81BE"/>
<path d="M1204.25 67.1001L1227.05 67.1001L1227.05 56.6001L1204.25 56.6001L1204.25 67.1001Z" fill="#6949FF" stroke="#5F28BA" stroke-miterlimit="10"/>
<path d="M1239.9 56.6001L1239.9 2.00006L1140 2.00005L1140 11.5001L1189.95 56.6001L1239.9 56.6001Z" fill="#6949FF" stroke="#5F28BA" stroke-miterlimit="10"/>
<path d="M1219.71 56.4001L1239.9 56.4001L1239.9 2.30011L1219.71 2.30011L1219.71 56.4001Z" fill="#5F28BA"/>
<path d="M1219.71 67.5001L1227.05 67.5001L1227.05 56.4001L1219.71 56.4001L1219.71 67.5001Z" fill="#5F28BA"/>
</svg>
