<svg width="1440" height="28" viewBox="0 0 1440 28" fill="none" xmlns="http://www.w3.org/2000/svg">
<path d="M1035.39 16.9L1138.89 16.9L1138.89 1.30002L1035.39 1.30001L1035.39 16.9Z" fill="#15CA96" stroke="#159A96" stroke-miterlimit="10"/>
<path d="M1101.99 27.4L1125.59 27.4L1125.59 16.9L1101.99 16.9L1101.99 27.4Z" fill="#15CA96" stroke="#159A96" stroke-miterlimit="10"/>
<path d="M1048.79 27.4L1072.39 27.4L1072.39 16.9L1048.79 16.9L1048.79 27.4Z" fill="#15CA96" stroke="#159A96" stroke-miterlimit="10"/>
<path d="M1117.99 16.3L1138.89 16.3L1138.89 1.20005L1117.99 1.20005L1117.99 16.3Z" fill="#159A96"/>
<path d="M1117.99 27.4L1125.59 27.4L1125.59 16.3L1117.99 16.3L1117.99 27.4Z" fill="#159A96"/>
<path d="M1064.29 27.4L1071.89 27.4L1071.89 16.3L1064.29 16.3L1064.29 27.4Z" fill="#159A96"/>
<path d="M214.394 16.9L266.194 16.9L317.894 16.9L317.894 1.20002L266.194 1.20002L214.394 1.20001L162.694 1.20001L162.694 16.9L214.394 16.9Z" fill="#00C1DE" stroke="#1E81BE" stroke-miterlimit="10"/>
<path d="M280.994 27.4L304.594 27.4L304.594 16.9L280.994 16.9L280.994 27.4Z" fill="#00C1DE" stroke="#1E81BE" stroke-miterlimit="10"/>
<path d="M229.494 27.4L253.094 27.4L253.094 16.9L229.494 16.9L229.494 27.4Z" fill="#00C1DE" stroke="#1E81BE" stroke-miterlimit="10"/>
<path d="M177.994 27.4L201.594 27.4L201.594 16.9L177.994 16.9L177.994 27.4Z" fill="#00C1DE" stroke="#1E81BE" stroke-miterlimit="10"/>
<path d="M296.894 16.3L317.794 16.3L317.794 1.20005L296.894 1.20005L296.894 16.3Z" fill="#1E81BE"/>
<path d="M296.894 27.4L304.494 27.4L304.494 16.3L296.894 16.3L296.894 27.4Z" fill="#1E81BE"/>
<path d="M245.494 27.4L253.094 27.4L253.094 16.3L245.494 16.3L245.494 27.4Z" fill="#1E81BE"/>
<path d="M194.094 27.4L201.694 27.4L201.694 16.3L194.094 16.3L194.094 27.4Z" fill="#1E81BE"/>
<path d="M490.794 27.2001L514.394 27.2001L514.394 16.7001L490.794 16.7001L490.794 27.2001Z" fill="#2592D0" stroke="#2C72B5" stroke-miterlimit="10"/>
<path d="M437.594 27.2001L461.194 27.2001L461.194 16.7001L437.594 16.7001L437.594 27.2001Z" fill="#2592D0" stroke="#2C72B5" stroke-miterlimit="10"/>
<path d="M422.394 16.7001L525.894 16.7001L525.894 1.00007L422.394 1.00006L318.994 1.00005L318.994 16.7001L422.394 16.7001Z" fill="#2592D0" stroke="#2C72B5" stroke-miterlimit="10"/>
<path d="M384.394 27.2001L407.994 27.2001L407.994 16.7001L384.394 16.7001L384.394 27.2001Z" fill="#2592D0" stroke="#2C72B5" stroke-miterlimit="10"/>
<path d="M331.194 27.1999L354.794 27.2L354.794 16.7L331.194 16.6999L331.194 27.1999Z" fill="#2592D0" stroke="#2C72B5" stroke-miterlimit="10"/>
<path d="M504.994 16.3L525.894 16.3L525.894 1.20005L504.994 1.20005L504.994 16.3Z" fill="#2C72B5"/>
<path d="M504.994 27.4L514.394 27.4L514.394 16.3L504.994 16.3L504.994 27.4Z" fill="#2C72B5"/>
<path d="M451.794 27.4L461.194 27.4L461.194 16.3L451.794 16.3L451.794 27.4Z" fill="#2C72B5"/>
<path d="M398.594 27.4L407.994 27.4L407.994 16.3L398.594 16.3L398.594 27.4Z" fill="#2C72B5"/>
<path d="M345.394 27.4L354.794 27.4L354.794 16.3L345.394 16.3L345.394 27.4Z" fill="#2C72B5"/>
<path d="M999.794 27.2001L1023.39 27.2001L1023.39 16.7001L999.794 16.7001L999.794 27.2001Z" fill="#2592D0" stroke="#2C72B5" stroke-miterlimit="10"/>
<path d="M946.594 27.2001L970.194 27.2001L970.194 16.7001L946.594 16.7001L946.594 27.2001Z" fill="#2592D0" stroke="#2C72B5" stroke-miterlimit="10"/>
<path d="M931.394 16.7001L1034.89 16.7001L1034.89 1.00007L931.394 1.00006L827.994 1.00005L827.994 16.7001L931.394 16.7001Z" fill="#2592D0" stroke="#2C72B5" stroke-miterlimit="10"/>
<path d="M893.394 27.2001L916.994 27.2001L916.994 16.7001L893.394 16.7001L893.394 27.2001Z" fill="#2592D0" stroke="#2C72B5" stroke-miterlimit="10"/>
<path d="M840.194 27.1999L863.794 27.2L863.794 16.7L840.194 16.6999L840.194 27.1999Z" fill="#2592D0" stroke="#2C72B5" stroke-miterlimit="10"/>
<path d="M1013.99 16.3L1034.89 16.3L1034.89 1.20005L1013.99 1.20005L1013.99 16.3Z" fill="#2C72B5"/>
<path d="M1013.99 27.4L1023.39 27.4L1023.39 16.3L1013.99 16.3L1013.99 27.4Z" fill="#2C72B5"/>
<path d="M960.794 27.4L970.194 27.4L970.194 16.3L960.794 16.3L960.794 27.4Z" fill="#2C72B5"/>
<path d="M907.594 27.4L916.994 27.4L916.994 16.3L907.594 16.3L907.594 27.4Z" fill="#2C72B5"/>
<path d="M854.394 27.4L863.794 27.4L863.794 16.3L854.394 16.3L854.394 27.4Z" fill="#2C72B5"/>
<path d="M128.982 27.4L151.783 27.4L151.783 16.9L128.982 16.9L128.982 27.4Z" fill="#F4D717" stroke="#E8B301" stroke-miterlimit="10"/>
<path d="M78.3555 27.4L101.157 27.4L101.157 16.9L78.3555 16.9L78.3555 27.4Z" fill="#F4D717" stroke="#E8B301" stroke-miterlimit="10"/>
<path d="M27.729 27.4L50.5303 27.4L50.5303 16.9L27.729 16.9L27.729 27.4Z" fill="#F4D717" stroke="#E8B301" stroke-miterlimit="10"/>
<path d="M-22.8974 27.4L-0.0961914 27.4L-0.0961905 16.9L-22.8974 16.9L-22.8974 27.4Z" fill="#F4D717" stroke="#E8B301" stroke-miterlimit="10"/>
<path d="M-137 16.9L162.894 16.9L162.894 1.29999L-137 1.29996L-137 16.9Z" fill="#F4D717" stroke="#E8B301" stroke-miterlimit="10"/>
<path d="M142.701 16.3L162.894 16.3L162.894 1.20007L142.701 1.20007L142.701 16.3Z" fill="#E8B301"/>
<path d="M142.701 27.4L151.783 27.4L151.783 16.3L142.701 16.3L142.701 27.4Z" fill="#E8B301"/>
<path d="M92.0749 27.4L101.157 27.4L101.157 16.3L92.0749 16.3L92.0749 27.4Z" fill="#E8B301"/>
<path d="M41.4484 27.4L50.5303 27.4L50.5303 16.3L41.4484 16.3L41.4484 27.4Z" fill="#E8B301"/>
<path d="M1203.48 27.2999L1226.28 27.2999L1226.28 16.7999L1203.48 16.7999L1203.48 27.2999Z" fill="#F4D717" stroke="#E8B301" stroke-miterlimit="10"/>
<path d="M1152.85 27.2999L1175.65 27.2999L1175.65 16.7999L1152.85 16.7999L1152.85 27.2999Z" fill="#F4D717" stroke="#E8B301" stroke-miterlimit="10"/>
<path d="M1405.98 27.4L1428.78 27.4L1428.78 16.9L1405.98 16.9L1405.98 27.4Z" fill="#F4D717" stroke="#E8B301" stroke-miterlimit="10"/>
<path d="M1355.36 27.4L1378.16 27.4L1378.16 16.9L1355.36 16.9L1355.36 27.4Z" fill="#F4D717" stroke="#E8B301" stroke-miterlimit="10"/>
<path d="M1304.73 27.4L1327.53 27.4L1327.53 16.9L1304.73 16.9L1304.73 27.4Z" fill="#F4D717" stroke="#E8B301" stroke-miterlimit="10"/>
<path d="M1254.1 27.4L1276.9 27.4L1276.9 16.9L1254.1 16.9L1254.1 27.4Z" fill="#F4D717" stroke="#E8B301" stroke-miterlimit="10"/>
<path d="M1140 16.9L1439.89 16.9L1439.89 1.29999L1140 1.29996L1140 16.9Z" fill="#F4D717" stroke="#E8B301" stroke-miterlimit="10"/>
<path d="M1419.7 16.3L1439.89 16.3L1439.89 1.20007L1419.7 1.20007L1419.7 16.3Z" fill="#E8B301"/>
<path d="M1419.7 27.4L1428.78 27.4L1428.78 16.3L1419.7 16.3L1419.7 27.4Z" fill="#E8B301"/>
<path d="M1369.07 27.4L1378.16 27.4L1378.16 16.3L1369.07 16.3L1369.07 27.4Z" fill="#E8B301"/>
<path d="M1318.45 27.4L1327.53 27.4L1327.53 16.3L1318.45 16.3L1318.45 27.4Z" fill="#E8B301"/>
<path d="M1267.82 27.4L1276.9 27.4L1276.9 16.3L1267.82 16.3L1267.82 27.4Z" fill="#E8B301"/>
<path d="M1217.2 27.4L1226.28 27.4L1226.28 16.3L1217.2 16.3L1217.2 27.4Z" fill="#E8B301"/>
<path d="M1166.57 27.4L1175.65 27.4L1175.65 16.3L1166.57 16.3L1166.57 27.4Z" fill="#E8B301"/>
<path d="M590.476 27.2999L613.278 27.2999L613.278 16.7999L590.476 16.7999L590.476 27.2999Z" fill="#15CA96" stroke="#159A96" stroke-miterlimit="10"/>
<path d="M539.85 27.2999L562.651 27.2999L562.651 16.7999L539.85 16.7999L539.85 27.2999Z" fill="#15CA96" stroke="#159A96" stroke-miterlimit="10"/>
<path d="M792.982 27.4L815.783 27.4L815.783 16.9L792.982 16.9L792.982 27.4Z" fill="#15CA96" stroke="#159A96" stroke-miterlimit="10"/>
<path d="M742.356 27.4L765.157 27.4L765.157 16.9L742.356 16.9L742.356 27.4Z" fill="#15CA96" stroke="#159A96" stroke-miterlimit="10"/>
<path d="M691.729 27.4L714.53 27.4L714.53 16.9L691.729 16.9L691.729 27.4Z" fill="#15CA96" stroke="#159A96" stroke-miterlimit="10"/>
<path d="M641.103 27.4L663.904 27.4L663.904 16.9L641.103 16.9L641.103 27.4Z" fill="#15CA96" stroke="#159A96" stroke-miterlimit="10"/>
<path d="M527 16.9L826.894 16.9L826.894 1.29999L527 1.29996L527 16.9Z" fill="#15CA96" stroke="#159A96" stroke-miterlimit="10"/>
<path d="M806.701 16.3L826.894 16.3L826.894 1.20007L806.701 1.20007L806.701 16.3Z" fill="#159A96"/>
<path d="M806.701 27.4L815.783 27.4L815.783 16.3L806.701 16.3L806.701 27.4Z" fill="#159A96"/>
<path d="M756.075 27.4L765.157 27.4L765.157 16.3L756.075 16.3L756.075 27.4Z" fill="#159A96"/>
<path d="M705.448 27.4L714.53 27.4L714.53 16.3L705.448 16.3L705.448 27.4Z" fill="#159A96"/>
<path d="M654.822 27.4L663.904 27.4L663.904 16.3L654.822 16.3L654.822 27.4Z" fill="#159A96"/>
<path d="M604.196 27.4L613.277 27.4L613.277 16.3L604.196 16.3L604.196 27.4Z" fill="#159A96"/>
<path d="M553.569 27.4L562.651 27.4L562.651 16.3L553.569 16.3L553.569 27.4Z" fill="#159A96"/>
</svg>
