<svg width="135" height="128" viewBox="0 0 135 128" fill="none" xmlns="http://www.w3.org/2000/svg">
<path d="M134.551 112.602L128.869 30.7439C128.783 29.5244 128.239 28.3824 127.346 27.5481C126.452 26.7138 125.276 26.2491 124.053 26.2476H103.814C103.744 21.9582 102.625 17.7512 100.554 13.9941C98.4837 10.237 95.5244 7.04416 91.9352 4.69453C88.3459 2.3449 84.2358 0.909982 79.9641 0.515147C75.6924 0.120312 71.389 0.777572 67.4298 2.42951C63.4707 0.777477 59.1672 0.120138 54.8954 0.514927C50.6236 0.909716 46.5135 2.34462 42.9242 4.69427C39.3349 7.04391 36.3756 10.2368 34.3048 13.9939C32.2341 17.7511 31.115 21.9582 31.0452 26.2476H31.0295H10.8118C9.58892 26.2487 8.4119 26.7134 7.51799 27.5479C6.62408 28.3825 6.07974 29.5249 5.99469 30.7448L0.312341 112.6C0.187531 114.432 0.447405 116.27 1.07525 117.995C1.70309 119.72 2.68501 121.295 3.95788 122.618C5.48605 124.213 7.32567 125.478 9.36273 126.334C11.3998 127.19 13.5909 127.618 15.8002 127.592H48.7971C48.8097 127.592 48.8223 127.592 48.8349 127.592H119.042C121.254 127.617 123.447 127.189 125.487 126.334C127.527 125.478 129.37 124.213 130.902 122.618C132.172 121.293 133.152 119.718 133.78 117.993C134.408 116.269 134.671 114.433 134.551 112.602ZM67.4298 13.4986C69.396 15.0043 71.0006 16.9308 72.126 19.1369C73.2514 21.3429 73.8692 23.7728 73.9341 26.2485H60.9255C60.9905 23.7728 61.6083 21.343 62.7337 19.1369C63.8592 16.9309 65.4637 15.0044 67.4298 13.4986ZM94.1616 26.2485H83.5864C83.4952 20.3368 81.4035 14.6305 77.6526 10.0603C81.9657 10.0936 86.0973 11.8 89.177 14.8198C92.2566 17.8396 94.0437 21.937 94.1616 26.2485ZM57.207 10.0603C53.4558 14.6309 51.3642 20.3377 51.2732 26.2498H40.6976C40.8152 21.938 42.6022 17.8402 45.6819 14.8201C48.7617 11.8 52.8937 10.0935 57.207 10.0603ZM123.859 116.036C123.227 116.664 122.475 117.157 121.647 117.486C120.82 117.814 119.934 117.972 119.044 117.948H99.3041H15.8002C14.9129 117.974 14.0298 117.817 13.2051 117.489C12.3805 117.16 11.632 116.666 11.0056 116.037C10.648 115.675 10.369 115.242 10.186 114.767C10.0031 114.292 9.92004 113.784 9.94214 113.275L15.3226 35.9162H99.3411L104.649 105.078C104.697 105.71 104.869 106.327 105.155 106.893C105.441 107.459 105.835 107.963 106.316 108.377C106.797 108.79 107.354 109.105 107.957 109.303C108.559 109.501 109.195 109.578 109.827 109.53C110.459 109.483 111.076 109.311 111.642 109.025C112.208 108.739 112.712 108.344 113.125 107.864C113.539 107.383 113.854 106.825 114.052 106.223C114.249 105.62 114.327 104.985 114.279 104.353L109.043 35.9162H119.537L124.918 113.276C124.94 113.784 124.858 114.292 124.675 114.766C124.493 115.241 124.215 115.673 123.859 116.036Z" fill="white"/>
<path d="M69.0672 77.6209C68.2138 77.6209 67.3955 77.282 66.7921 76.6786C66.1887 76.0752 65.8497 75.2568 65.8497 74.4035C65.8466 71.4705 64.6802 68.6586 62.6064 66.5845C60.5326 64.5105 57.7208 63.3437 54.7878 63.3403C53.9345 63.3403 53.1161 63.0013 52.5128 62.3979C51.9094 61.7945 51.5704 60.9762 51.5704 60.1228C51.5704 59.2695 51.9094 58.4511 52.5128 57.8478C53.1161 57.2444 53.9345 56.9054 54.7878 56.9054C59.4268 56.9109 63.8742 58.7562 67.1543 62.0366C70.4345 65.317 72.2795 69.7645 72.2846 74.4035C72.2846 74.826 72.2014 75.2444 72.0397 75.6348C71.878 76.0251 71.641 76.3798 71.3422 76.6786C71.0435 76.9773 70.6888 77.2143 70.2984 77.376C69.9081 77.5377 69.4897 77.6209 69.0672 77.6209Z" fill="white"/>
<path d="M91.9529 103.318L79.6365 91.0016C83.8226 84.7504 85.5046 77.1534 84.3483 69.7194C83.1921 62.2854 79.2822 55.5582 73.3952 50.8737C67.5082 46.1893 60.0746 43.8903 52.5709 44.4333C45.0671 44.9762 38.042 48.3215 32.8908 53.8048C27.7395 59.288 24.8389 66.508 24.765 74.0311C24.6911 81.5541 27.4493 88.8298 32.4918 94.4131C37.5343 99.9965 44.4923 103.479 51.984 104.17C59.4756 104.86 66.9529 102.707 72.9308 98.1394L85.0309 110.24C85.9489 111.158 87.1938 111.673 88.4919 111.673C89.79 111.673 91.0349 111.158 91.9529 110.24C92.8707 109.322 93.3863 108.077 93.3863 106.779C93.3863 105.481 92.8707 104.236 91.9529 103.318ZM54.7896 94.6422C50.7864 94.6423 46.873 93.4552 43.5444 91.2312C40.2158 89.0072 37.6214 85.846 36.0894 82.1475C34.5574 78.449 34.1565 74.3793 34.9375 70.4529C35.7185 66.5266 37.6462 62.92 40.4769 60.0893C43.3076 57.2586 46.9142 55.3308 50.8406 54.5499C54.7669 53.7689 58.8366 54.1698 62.5351 55.7018C66.2337 57.2338 69.3948 59.8282 71.6188 63.1568C73.8429 66.4854 75.0299 70.3988 75.0298 74.402C75.0237 79.7682 72.8893 84.9128 69.0949 88.7073C65.3004 92.5017 60.1558 94.6361 54.7896 94.6422Z" fill="white"/>
</svg>
