<svg width="38" height="36" viewBox="0 0 38 36" fill="none" xmlns="http://www.w3.org/2000/svg">
<path d="M37.7644 31.6693L36.1662 8.64675C36.1423 8.30376 35.9892 7.98259 35.7379 7.74793C35.4866 7.51328 35.1557 7.38258 34.8119 7.38216H29.1196C29.1 6.17578 28.7852 4.99255 28.2028 3.93587C27.6205 2.87919 26.7882 1.9812 25.7787 1.32036C24.7692 0.659529 23.6133 0.255959 22.4118 0.144912C21.2104 0.0338644 20.0001 0.218719 18.8866 0.683326C17.7731 0.218692 16.5627 0.0338155 15.3613 0.14485C14.1598 0.255884 13.0039 0.659452 11.9944 1.32029C10.9849 1.98113 10.1526 2.87912 9.57017 3.93582C8.98778 4.99252 8.67303 6.17576 8.65341 7.38216H8.64897H2.96277C2.61882 7.38248 2.28778 7.51317 2.03637 7.74789C1.78496 7.9826 1.63186 8.30389 1.60794 8.647L0.00978274 31.6689C-0.0253203 32.184 0.0477694 32.7008 0.22435 33.186C0.400931 33.6713 0.677097 34.1142 1.03509 34.4862C1.46489 34.9351 1.98228 35.2908 2.55521 35.5315C3.12813 35.7721 3.74438 35.8926 4.36575 35.8853H13.6461C13.6497 35.8853 13.6532 35.8853 13.6568 35.8853H33.4025C34.0246 35.8924 34.6415 35.772 35.2153 35.5313C35.789 35.2907 36.3073 34.935 36.7382 34.4862C37.0953 34.1136 37.3709 33.6707 37.5476 33.1857C37.7243 32.7007 37.7981 32.1843 37.7644 31.6693ZM18.8866 3.79651C19.4396 4.22 19.8909 4.76181 20.2074 5.38227C20.5239 6.00273 20.6977 6.68613 20.7159 7.38242H17.0572C17.0755 6.68613 17.2493 6.00275 17.5658 5.38229C17.8823 4.76184 18.3336 4.22002 18.8866 3.79651ZM26.4049 7.38242H23.4306C23.405 5.71977 22.8167 4.11487 21.7617 2.8295C22.9748 2.83886 24.1368 3.31877 25.003 4.16809C25.8691 5.01741 26.3717 6.1698 26.4049 7.38242ZM16.0114 2.8295C14.9564 4.11497 14.3681 5.72001 14.3425 7.3828H11.3681C11.4012 6.17009 11.9038 5.01758 12.77 4.16818C13.6362 3.31878 14.7983 2.83883 16.0114 2.8295ZM34.7572 32.6351C34.5796 32.8117 34.368 32.9505 34.1352 33.0429C33.9024 33.1353 33.6533 33.1796 33.403 33.1729H27.8512H4.36575C4.1162 33.1801 3.86781 33.1362 3.63588 33.0438C3.40396 32.9514 3.19343 32.8124 3.01727 32.6355C2.91669 32.5335 2.83822 32.4119 2.78676 32.2782C2.7353 32.1445 2.71195 32.0017 2.71816 31.8586L4.23141 10.1014H27.8616L29.3546 29.5532C29.368 29.7311 29.4163 29.9045 29.4967 30.0637C29.5771 30.2229 29.6881 30.3646 29.8234 30.4809C29.9586 30.5972 30.1154 30.6857 30.2848 30.7414C30.4542 30.797 30.633 30.8188 30.8108 30.8054C30.9886 30.792 31.1621 30.7437 31.3213 30.6633C31.4804 30.5829 31.6222 30.4719 31.7385 30.3366C31.8547 30.2014 31.9432 30.0446 31.9989 29.8752C32.0546 29.7058 32.0764 29.527 32.063 29.3492L30.5903 10.1014H33.5417L35.0552 31.859C35.0614 32.0019 35.0382 32.1445 34.9869 32.278C34.9356 32.4116 34.8574 32.5331 34.7572 32.6351Z" fill="#553CB9"/>
<path d="M19.3471 21.8309C19.1071 21.8309 18.8769 21.7356 18.7072 21.5659C18.5375 21.3962 18.4422 21.166 18.4422 20.926C18.4413 20.1011 18.1133 19.3102 17.53 18.7269C16.9468 18.1436 16.1559 17.8154 15.3311 17.8145C15.0911 17.8145 14.8609 17.7191 14.6912 17.5494C14.5215 17.3797 14.4261 17.1495 14.4261 16.9096C14.4261 16.6696 14.5215 16.4394 14.6912 16.2697C14.8609 16.1 15.0911 16.0046 15.3311 16.0046C16.6358 16.0062 17.8866 16.5252 18.8091 17.4478C19.7317 18.3704 20.2506 19.6213 20.252 20.926C20.252 21.0448 20.2286 21.1625 20.1831 21.2723C20.1377 21.3821 20.071 21.4818 19.987 21.5659C19.9029 21.6499 19.8032 21.7165 19.6934 21.762C19.5836 21.8075 19.4659 21.8309 19.3471 21.8309Z" fill="#553CB9"/>
<path d="M25.7837 29.0582L22.3197 25.5942C23.4971 23.8361 23.9701 21.6994 23.6449 19.6086C23.3197 17.5178 22.2201 15.6258 20.5644 14.3083C18.9086 12.9908 16.818 12.3442 14.7075 12.4969C12.5971 12.6496 10.6213 13.5905 9.1725 15.1326C7.72371 16.6748 6.90791 18.7054 6.88713 20.8213C6.86634 22.9371 7.64208 24.9834 9.06029 26.5537C10.4785 28.1241 12.4354 29.1036 14.5425 29.2977C16.6495 29.4919 18.7525 28.8865 20.4338 27.6018L23.8369 31.005C24.0951 31.2632 24.4452 31.4082 24.8103 31.4082C25.1754 31.4082 25.5255 31.2632 25.7837 31.005C26.0419 30.7469 26.1869 30.3967 26.1869 30.0316C26.1869 29.6665 26.0419 29.3164 25.7837 29.0582ZM15.3316 26.6182C14.2056 26.6182 13.105 26.2843 12.1688 25.6588C11.2327 25.0333 10.503 24.1442 10.0721 23.104C9.64124 22.0638 9.52849 20.9192 9.74814 19.8149C9.96779 18.7106 10.51 17.6963 11.3061 16.9002C12.1022 16.104 13.1166 15.5618 14.2209 15.3422C15.3252 15.1225 16.4698 15.2353 17.51 15.6662C18.5502 16.097 19.4393 16.8267 20.0648 17.7629C20.6903 18.6991 21.0241 19.7997 21.0241 20.9256C21.0224 22.4348 20.4221 23.8818 19.3549 24.949C18.2877 26.0161 16.8408 26.6164 15.3316 26.6182Z" fill="#553CB9"/>
</svg>
